<?xml version="1.0" standalone="no"?><svg xmlns="http://www.w3.org/2000/svg" viewBox="0 0 1440 320"><path fill="#0099ff" fill-opacity="1" d="M0,32L30,64C60,96,120,160,180,181.3C240,203,300,181,360,192C420,203,480,245,540,266.7C600,288,660,288,720,240C780,192,840,96,900,80C960,64,1020,128,1080,176C1140,224,1200,256,1260,250.7C1320,245,1380,203,1410,181.3L1440,160L1440,320L1410,320C1380,320,1320,320,1260,320C1200,320,1140,320,1080,320C1020,320,960,320,900,320C840,320,780,320,720,320C660,320,600,320,540,320C480,320,420,320,360,320C300,320,240,320,180,320C120,320,60,320,30,320L0,320Z"></path></svg>